<?xml version="1.0" encoding="UTF-8"?>
<svg xmlns="http://www.w3.org/2000/svg" version="1.1" viewBox="0 0 1224 792">
  <!-- Generator: Adobe Illustrator 29.2.1, SVG Export Plug-In . SVG Version: 2.1.0 Build 116)  -->
  <defs>
    <style>
      .st0 {
        fill: #c14848;
        animation: anim2 2s infinite;
      }

      .st0, .st1, .st2 {
        stroke-width: 5px;
      }

      .st0, .st1, .st2, .st3, .st4 {
        stroke: #000;
        stroke-miterlimit: 10;
      }

      .st1, .st4 {
        fill: #edeb98;
      }

      .st2 {
        fill: #ffcebf;
        animation: anim1 2s infinite;
      }

      .st5 {
        fill: #cd9c00;
      }

      .st3 {
        fill: #ff0;
        stroke-width: 2px;
      }

      .st4 {
        stroke-width: 4px;
      }

      @keyframes anim1{
        from{
          fill: #ffcebf;
        }
        to{
          fill: #FF9966;
        }

      @keyframes anim2{
        from{
         fill: #c14848;
          }
        to{
          fill: #890B0B;

          }
        }
      }
    </style>





  </defs>
  <g id="Layer_9">
    <ellipse class="st2" cx="612" cy="136.26" rx="32.17" ry="44.43"/>
    <ellipse class="st2" cx="670.64" cy="96.17" rx="32.17" ry="44.43" transform="translate(-4.42 153.6) rotate(-13.02)"/>
    <ellipse class="st2" cx="729.36" cy="69.62" rx="32.17" ry="44.43"/>
    <ellipse class="st2" cx="793.7" cy="67.71" rx="44.43" ry="32.17" transform="translate(606.16 841.9) rotate(-81.26)"/>
    <ellipse class="st2" cx="847.83" cy="86.72" rx="44.43" ry="32.17" transform="translate(449.76 840.3) rotate(-68)"/>
    <ellipse class="st2" cx="888.52" cy="126.85" rx="44.43" ry="32.17" transform="translate(305.25 809.02) rotate(-57.59)"/>
    <ellipse class="st2" cx="911.66" cy="180.68" rx="44.43" ry="32.17" transform="translate(31.8 480.04) rotate(-30)"/>
    <ellipse class="st2" cx="920.8" cy="245.04" rx="44.43" ry="32.17" transform="translate(-22.69 378.29) rotate(-22.94)"/>
    <ellipse class="st2" cx="920.8" cy="306.04" rx="44.43" ry="32.17"/>
    <ellipse class="st2" cx="901.45" cy="362.85" rx="32.17" ry="44.43" transform="translate(317.3 1139.41) rotate(-74.97)"/>
    <ellipse class="st2" cx="879.49" cy="425.12" rx="32.17" ry="44.43" transform="translate(240.9 1164.33) rotate(-74.97)"/>
    <ellipse class="st2" cx="855.49" cy="483.23" rx="32.17" ry="44.43" transform="translate(132.28 1148.32) rotate(-72.06)"/>
    <ellipse class="st2" cx="820.77" cy="537.87" rx="32.17" ry="44.43" transform="translate(-11.94 1057.06) rotate(-65.18)"/>
    <ellipse class="st2" cx="786.23" cy="583.29" rx="33.57" ry="44.43" transform="translate(-147.51 877.45) rotate(-54.06)"/>
    <ellipse class="st2" cx="745.6" cy="632.99" rx="32.17" ry="44.43" transform="translate(-204.52 865.08) rotate(-54.06)"/>
    <ellipse class="st2" cx="697.19" cy="680.48" rx="32.17" ry="44.43" transform="translate(-274.46 609.56) rotate(-40.13)"/>
    <ellipse class="st2" cx="646.18" cy="727.63" rx="32.17" ry="44.43" transform="translate(-316.85 587.78) rotate(-40.13)"/>
    <ellipse class="st2" cx="603.74" cy="747.57" rx="32.17" ry="44.43"/>
    <ellipse class="st2" cx="550.13" cy="715.32" rx="44.43" ry="32.17" transform="translate(-348.53 633.26) rotate(-47.22)"/>
    <ellipse class="st2" cx="502.12" cy="670.89" rx="44.43" ry="32.17" transform="translate(-331.33 583.77) rotate(-47.22)"/>
    <ellipse class="st2" cx="462.8" cy="627.5" rx="44.43" ry="32.17" transform="translate(-302.24 476.97) rotate(-42.46)"/>
    <ellipse class="st2" cx="413.75" cy="582.13" rx="44.43" ry="32.17" transform="translate(-263.41 355.17) rotate(-36.07)"/>
    <ellipse class="st2" cx="372.83" cy="518.6" rx="44.43" ry="32.17" transform="translate(-227.83 301.45) rotate(-34.41)"/>
    <ellipse class="st2" cx="345.26" cy="455.91" rx="44.43" ry="32.17" transform="translate(-168.99 205.71) rotate(-26.92)"/>
    <ellipse class="st2" cx="325.86" cy="386.72" rx="44.43" ry="32.17" transform="translate(-104.28 120.78) rotate(-18.15)"/>
    <ellipse class="st2" cx="307.48" cy="319.28" rx="44.43" ry="32.17" transform="translate(-84.18 111.7) rotate(-18.15)"/>
    <ellipse class="st2" cx="307.48" cy="253.15" rx="44.43" ry="32.17" transform="translate(-17.3 22.62) rotate(-4.1)"/>
    <ellipse class="st2" cx="311.51" cy="188.39" rx="32.17" ry="44.43" transform="translate(105.69 488.67) rotate(-86.74)"/>
    <ellipse class="st2" cx="337.19" cy="128.62" rx="32.17" ry="44.43" transform="translate(36.15 327.65) rotate(-54.35)"/>
    <ellipse class="st2" cx="381.13" cy="95.52" rx="32.17" ry="44.43" transform="translate(19.01 248.02) rotate(-36.91)"/>
    <ellipse class="st2" cx="434.72" cy="72.17" rx="32.17" ry="44.43" transform="translate(-.85 139.05) rotate(-18.15)"/>
    <ellipse class="st2" cx="484.2" cy="78.55" rx="44.43" ry="32.17" transform="translate(258.63 514.14) rotate(-71.84)"/>
    <ellipse class="st2" cx="553.01" cy="95.15" rx="44.43" ry="32.17" transform="translate(264.78 576.6) rotate(-68.86)"/>
  </g>
  <g id="Layer_2">
    <path class="st0" d="M617,168s13-80,147-106c0,0,160,7,169,147,0,0,34,57-40,237,0,0-53,145-276,318l-5,7s-116-78-183-161-162-229-140-405c0,0,5-124,156-143,0,0,110-4,172,106Z"/>
  </g>
  <g id="Layer_3">
    <path class="st3" d="M376,138s4,26-35,48c0,0,43,8,42,59,0,0-1-52,26-70,0,0-33-13-33-37Z"/>
    <path class="st3" d="M873.01,217.96s3.03,19.69-26.51,36.35c0,0,32.57,6.06,31.81,44.68,0,0-.76-39.38,19.69-53.01,0,0-24.99-9.85-24.99-28.02Z"/>
    <path class="st3" d="M655.03,629.92s2.24,14.54-19.57,26.84c0,0,24.04,4.47,23.48,32.99,0,0-.56-29.07,14.54-39.14,0,0-18.45-7.27-18.45-20.69Z"/>
  </g>
  <g id="Layer_5">
    <path class="st4" d="M553,316s52.42-127.42,183.08-83.11c1.96.66,3.93,1.37,5.92,2.11,135,50.26,48,218,48,218l-110,120s-95,45-179,0-65-90-65-90l117-167Z"/>
  </g>
  <g id="Layer_4">
    <path class="st1" d="M483,316s92-14,135,14c0,0,44-46,61-47,0,0,21,32,7,80,0,0,61,69,9,110,0,0-3,65-163,54,0,0-144-17.75-141-121.37l31-59.63s-2-68,18-76c0,0,19,3,43,46Z"/>
  </g>
  <g id="Layer_7">
    <path class="st5" d="M523.08,315.22c-1.18-1.05-2.81-1.65-4.86-1.44-11.18,1.13-22.37,2.25-33.55,3.38-.58-.81-1.33-1.55-2.22-2.17-.1-.07-.87-.63-1.12-.8-.21-.18-.64-.54-.7-.59-.97-.84-1.89-1.72-2.76-2.65-.19-.2-.37-.41-.56-.62-5.32-7.45-9.1-16.08-16.05-22.18-3.59-6.44-7.95-13.12-15.51-14.23-.35-.05-.7-.08-1.05-.1-3.87-3.43-10.84-3.21-12.03,3.2-.22,1.19-.44,2.38-.66,3.57-.12.28-.23.58-.32.9-4.02,13.71-6.57,27.8-7.62,42.01-.21,1.14-.42,2.28-.63,3.42-.86,4.64-2.13,9.45-.45,14.05.17.48.37.92.58,1.34.01.66.03,1.32.05,1.98-.35,1.55-.46,3.11-.28,4.69-8.02.41-10.9,12.98-2.07,14.58,40.62,7.35,83.58-6.47,111.64-36.97,6.27-6.81-3.24-16.89-9.81-11.36Z"/>
    <path class="st5" d="M701.35,386.46c-.04-1.64-.65-3.32-2.06-4.85-1.49-1.61-3.03-3.16-4.59-4.69-3.08-5.15-6.16-10.29-9.24-15.44-.17-.29-.35-.55-.54-.8.13-.55.22-1.13.24-1.76.54-1.05.89-2.25,1.05-3.5.18-1.5.36-3,.54-4.5,2.21-8.74,3.31-17.72,3.29-26.76,0-2.18-.78-3.87-1.97-5.07-.72-10.24-2.94-20.29-7.77-29.93-1.35-2.68-3.52-3.79-5.76-3.8-1.8-.42-3.71-.22-5.23.87-14.3,10.27-27.73,21.62-40.14,34.09-4.34,3.22-8.89,7.07-11.28,11.56-13.5-7.19-27.71-13.02-42.4-17.44-2.43-.73-4.49-.27-6.04.85-1.76-.48-3.68-.32-5.52.73-.97.55-1.8,1.39-2.44,2.38-1.93,2.13-2.73,5.23-.92,8.47,27.18,48.69,84.47,62.86,134.97,73.41,8.74,1.82,12.83-10.48,5.82-13.85Z"/>
    <path d="M622.16,393.39c-4.84,4.43-11.1,7.1-17.67,7.43-3.98.2-17.36-.7-17.15-6.64.25-7.08-10.75-7.07-11,0-.42,12.04,14.01,16.84,23.81,17.58,10.96.83,21.75-3.23,29.79-10.6,5.23-4.79-2.56-12.56-7.78-7.78Z"/>
    <path d="M473.4,378.9c-10.84,6.02-23.5,3.95-32.03-4.96-4.91-5.12-12.68,2.66-7.78,7.78,11.97,12.49,30.29,15.04,45.36,6.68,6.19-3.44.65-12.94-5.55-9.5Z"/>
    <path d="M556.33,434.3c-10.74,9.23-27,4.1-31.05-9.25-.16-.54-.4-1.01-.66-1.43,1.19-1.37,1.79-3.27,1.15-5.01-.31-.85-.36-1.3-.1-1.51.47-.04.95-.07,1.42-.12,7.03-.81,7.1-10.24,0-11-1.24-.13-2.43-.03-3.57.22-3.59.02-7.03-.59-10.54-1.89-2.79-1.03-6.03,1.15-6.77,3.84-.84,3.07,1.04,5.74,3.84,6.77,1.48.54,2.99.98,4.51,1.34-.21,1.72-.05,3.52.6,5.28.18.49.41.95.69,1.37-.55.54-.98,1.19-1.22,1.94-2.63,5.68-8.07,9.13-14.45,8.91-7.37-.25-13.31-5.05-17.64-10.64-4.33-5.59-12.06,2.25-7.78,7.78,6.3,8.15,16.21,14.28,26.8,13.85,6.57-.27,13.03-2.91,17.69-7.45,10.12,14.03,30.61,17.02,44.85,4.79,5.38-4.62-2.43-12.37-7.78-7.78Z"/>
  </g>
  <g id="Layer_6">
    <path class="st1" d="M819,367l-16,62s-40,61-100,85c0,0-42,67,34,60,0,0,88-51,101-135,0,0,10-57-19-72Z"/>
  </g>
</svg>